<svg width="22" height="14" viewBox="0 0 22 14" fill="none" xmlns="http://www.w3.org/2000/svg">
<path fill-rule="evenodd" clip-rule="evenodd" d="M16 0H2C0.9 0 0 0.89 0 2V11H2C2 12.66 3.34 14 5 14C6.66 14 8 12.66 8 11H14C14 12.66 15.34 14 17 14C18.66 14 20 12.66 20 11H22V6L16 0ZM14 2H15L18 5H14V2ZM12 2H8V5H12V2ZM2 2H6V5H2V2ZM3.75 11C3.75 11.69 4.31 12.25 5 12.25C5.69 12.25 6.25 11.69 6.25 11C6.25 10.31 5.69 9.75 5 9.75C4.31 9.75 3.75 10.31 3.75 11ZM17 12.25C16.31 12.25 15.75 11.69 15.75 11C15.75 10.31 16.31 9.75 17 9.75C17.69 9.75 18.25 10.31 18.25 11C18.25 11.69 17.69 12.25 17 12.25ZM19.22 9H20V7H2V9H2.78C3.33 8.39 4.11 8 5 8C5.89 8 6.67 8.39 7.22 9H14.78C15.33 8.39 16.12 8 17 8C17.88 8 18.67 8.39 19.22 9Z"/>
</svg>
