<svg width="16" height="16" viewBox="0 0 16 16" fill="none" xmlns="http://www.w3.org/2000/svg">
<path fill-rule="evenodd" clip-rule="evenodd" d="M12.7791 2C12.6058 2 12.4391 2.06667 12.3058 2.19333L6.33244 8.16667L8.16577 10L14.1391 4.02667C14.3991 3.76667 14.3991 3.34667 14.1391 3.08667L13.2458 2.19333C13.1124 2.06 12.9458 2 12.7791 2ZM4.9991 10.6667C5.36577 10.6667 5.66577 10.9667 5.66577 11.3333C5.66577 12.0667 5.06577 12.6667 4.33244 12.6667C4.2191 12.6667 4.11244 12.6533 3.9991 12.6333C4.20577 12.2667 4.33244 11.8267 4.33244 11.3333C4.33244 10.9667 4.63244 10.6667 4.9991 10.6667ZM2.9991 11.3333C2.9991 10.2267 3.89244 9.33333 4.9991 9.33333C6.10577 9.33333 6.9991 10.2267 6.9991 11.3333C6.9991 12.8067 5.80577 14 4.33244 14C3.32577 14 2.2791 13.48 1.66577 12.6667C2.22577 12.6667 2.9991 12.2067 2.9991 11.3333Z" fill="#205EFB"/>
</svg>
