<svg width="28" height="28" viewBox="0 0 28 28" fill="none" xmlns="http://www.w3.org/2000/svg">
<path fill-rule="evenodd" clip-rule="evenodd" d="M0.666016 13.9993C0.666016 21.346 6.65268 27.3327 13.9994 27.3327C15.8394 27.3327 17.3327 25.8393 17.3327 23.9993C17.3327 23.186 17.026 22.3993 16.4794 21.7727C16.3727 21.6393 16.306 21.4927 16.306 21.3327C16.306 20.9593 16.5993 20.666 16.9727 20.666H19.3327C23.746 20.666 27.3327 17.0793 27.3327 12.666C27.3327 6.05268 21.346 0.666016 13.9994 0.666016C6.65268 0.666016 0.666016 6.65268 0.666016 13.9993ZM3.33255 13.9994C3.33255 8.11942 8.11922 3.33275 13.9992 3.33275C19.8792 3.33275 24.6659 7.51942 24.6659 12.6661C24.6659 15.6127 22.2792 17.9994 19.3326 17.9994H16.9726C15.1326 17.9994 13.6392 19.4927 13.6392 21.3327C13.6392 22.1327 13.9326 22.9194 14.4792 23.5327C14.5592 23.6261 14.6659 23.7861 14.6659 23.9994C14.6659 24.3727 14.3726 24.6661 13.9992 24.6661C8.11922 24.6661 3.33255 19.8794 3.33255 13.9994ZM6.66602 11.3327C5.56145 11.3327 4.66602 12.2282 4.66602 13.3328C4.66602 14.4373 5.56145 15.3328 6.66602 15.3328C7.77059 15.3328 8.66602 14.4373 8.66602 13.3328C8.66602 12.2282 7.77059 11.3327 6.66602 11.3327ZM8.66602 7.99928C8.66602 6.89471 9.56145 5.99928 10.666 5.99928C11.7706 5.99928 12.666 6.89471 12.666 7.99928C12.666 9.10385 11.7706 9.99928 10.666 9.99928C9.56145 9.99928 8.66602 9.10385 8.66602 7.99928ZM17.3326 5.99928C16.228 5.99928 15.3326 6.89471 15.3326 7.99928C15.3326 9.10385 16.228 9.99928 17.3326 9.99928C18.4371 9.99928 19.3326 9.10385 19.3326 7.99928C19.3326 6.89471 18.4371 5.99928 17.3326 5.99928ZM19.3326 13.3328C19.3326 12.2282 20.228 11.3327 21.3326 11.3327C22.4371 11.3327 23.3326 12.2282 23.3326 13.3328C23.3326 14.4373 22.4371 15.3328 21.3326 15.3328C20.228 15.3328 19.3326 14.4373 19.3326 13.3328Z"/>
</svg>
