<svg width="15" height="16" viewBox="0 0 15 16" fill="none" xmlns="http://www.w3.org/2000/svg">
<path fill-rule="evenodd" clip-rule="evenodd" d="M13.2 1.2L12 0L10.8 1.2L9.6 0L8.4 1.2L7.2 0L6 1.2L4.8 0L3.6 1.2L2.4 0L1.2 1.2L0 0V16L1.2 14.8L2.4 16L3.6 14.8L4.8 16L6 14.8L7.2 16L8.4 14.8L9.6 16L10.8 14.8L12 16L13.2 14.8L14.4 16V0L13.2 1.2ZM12.8 13.672H1.59998V2.32795H12.8V13.672ZM12 10.3999H2.40002V11.9999H12V10.3999ZM2.40002 7.19997H12V8.79996H2.40002V7.19997ZM12 4H2.40002V5.6H12V4Z" fill="black" fill-opacity="0.54"/>
</svg>
