<svg width="12" height="14" viewBox="0 0 12 14" fill="none" xmlns="http://www.w3.org/2000/svg">
<path fill-rule="evenodd" clip-rule="evenodd" d="M10.6667 1.66659H10V0.333252H8.66667V1.66659H3.33333V0.333252H2V1.66659H1.33333C0.6 1.66659 0 2.26659 0 2.99992V12.3333C0 13.0666 0.6 13.6666 1.33333 13.6666H10.6667C11.4 13.6666 12 13.0666 12 12.3333V2.99992C12 2.26659 11.4 1.66659 10.6667 1.66659ZM10.6667 12.3333H1.33336V5.66659H10.6667V12.3333ZM1.33336 2.99991V4.33325H10.6667V2.99991H1.33336ZM2.66664 6.99991H9.33331V8.33325H2.66664V6.99991ZM7.33331 9.66659H2.66664V10.9999H7.33331V9.66659Z"/>
</svg>
