<svg width="30" height="30" viewBox="0 0 30 30" fill="none" xmlns="http://www.w3.org/2000/svg">
<path d="M8.33398 13.6663H0.333984V16.333H8.33398V13.6663ZM11.2273 9.34634L8.40065 6.51967L6.52065 8.39967L9.34732 11.2263L11.2273 9.34634ZM16.334 0.333008H13.6673V8.33301H16.334V0.333008ZM23.4806 8.39967L21.6006 6.51967L18.774 9.34634L20.654 11.2263L23.4806 8.39967ZM21.6673 13.6663V16.333H29.6673V13.6663H21.6673ZM15.0006 10.9997C12.7873 10.9997 11.0006 12.7863 11.0006 14.9997C11.0006 17.213 12.7873 18.9997 15.0006 18.9997C17.214 18.9997 19.0006 17.213 19.0006 14.9997C19.0006 12.7863 17.214 10.9997 15.0006 10.9997ZM18.774 20.653L21.6006 23.4797L23.4806 21.5997L20.654 18.773L18.774 20.653ZM6.52065 21.5997L8.40065 23.4797L11.2273 20.653L9.34732 18.773L6.52065 21.5997ZM13.6673 29.6663H16.334V21.6663H13.6673V29.6663Z"/>
</svg>
