<svg width="24" height="28" viewBox="0 0 24 28" fill="none" xmlns="http://www.w3.org/2000/svg">
<path fill-rule="evenodd" clip-rule="evenodd" d="M19.1047 2.00033V3.33366H23.0856V14.0003H12.4699V26.0003C12.4699 26.7337 11.8728 27.3337 11.143 27.3337H8.48907C7.75924 27.3337 7.16211 26.7337 7.16211 26.0003V11.3337H20.4317V6.00033H19.1047V7.33366C19.1047 8.06699 18.5076 8.66699 17.7777 8.66699H1.8543C1.12447 8.66699 0.527344 8.06699 0.527344 7.33366V2.00033C0.527344 1.26699 1.12447 0.666992 1.8543 0.666992H17.7777C18.5076 0.666992 19.1047 1.26699 19.1047 2.00033ZM3.18123 6.00033H16.4508V3.33367H3.18123V6.00033Z"/>
</svg>
