<svg width="22" height="22" viewBox="0 0 22 22" fill="none" xmlns="http://www.w3.org/2000/svg">
<path fill-rule="evenodd" clip-rule="evenodd" d="M21.6673 3.00065C21.6673 4.46732 20.4673 5.66732 19.0007 5.66732C17.534 5.66732 16.334 4.46732 16.334 3.00065C16.334 1.53398 17.534 0.333984 19.0007 0.333984C20.4673 0.333984 21.6673 1.53398 21.6673 3.00065ZM0.333984 8.33392C0.333984 6.86725 1.53398 5.66725 3.00065 5.66725C4.46732 5.66725 5.66732 6.86725 5.66732 8.33392C5.66732 9.80058 4.46732 11.0006 3.00065 11.0006C1.53398 11.0006 0.333984 9.80058 0.333984 8.33392ZM5.66745 13.6674C5.66745 12.2007 6.86745 11.0007 8.33411 11.0007C9.80078 11.0007 11.0008 12.2007 11.0008 13.6674C11.0008 15.1341 9.80078 16.3341 8.33411 16.3341C6.86745 16.3341 5.66745 15.1341 5.66745 13.6674ZM3.00065 16.334C1.53398 16.334 0.333984 17.534 0.333984 19.0007C0.333984 20.4673 1.53398 21.6673 3.00065 21.6673C4.46732 21.6673 5.66732 20.4673 5.66732 19.0007C5.66732 17.534 4.46732 16.334 3.00065 16.334ZM13.6672 16.334C12.2005 16.334 11.0005 17.534 11.0005 19.0007C11.0005 20.4673 12.2005 21.6673 13.6672 21.6673C15.1339 21.6673 16.3339 20.4673 16.3339 19.0007C16.3339 17.534 15.1339 16.334 13.6672 16.334ZM16.334 13.6674C16.334 12.2007 17.534 11.0007 19.0007 11.0007C20.4673 11.0007 21.6673 12.2007 21.6673 13.6674C21.6673 15.1341 20.4673 16.3341 19.0007 16.3341C17.534 16.3341 16.334 15.1341 16.334 13.6674ZM13.6672 5.66725C12.2005 5.66725 11.0005 6.86725 11.0005 8.33392C11.0005 9.80058 12.2005 11.0006 13.6672 11.0006C15.1339 11.0006 16.3339 9.80058 16.3339 8.33392C16.3339 6.86725 15.1339 5.66725 13.6672 5.66725ZM5.66745 3.00065C5.66745 1.53398 6.86745 0.333984 8.33411 0.333984C9.80078 0.333984 11.0008 1.53398 11.0008 3.00065C11.0008 4.46732 9.80078 5.66732 8.33411 5.66732C6.86745 5.66732 5.66745 4.46732 5.66745 3.00065Z"/>
</svg>
