<svg width="62" height="62" viewBox="0 0 62 62" fill="none" xmlns="http://www.w3.org/2000/svg">
<path fill-rule="evenodd" clip-rule="evenodd" d="M33.1269 5.11217H50.9632C53.7661 5.11217 56.0593 7.40541 56.0593 10.2083V28.0446H50.9632V10.2083H33.1269V5.11217ZM28.0301 10.2084H10.1938V28.0447H5.09766V10.2084C5.09766 7.40554 7.3909 5.1123 10.1938 5.1123H28.0301V10.2084ZM15.2893 45.8816L25.4815 33.1413L33.0492 42.5946L38.2217 35.6894L45.8659 45.8816H15.2893ZM43.3184 21.6751C43.3184 19.5602 41.6112 17.853 39.4963 17.853C37.3815 17.853 35.6743 19.5602 35.6743 21.6751C35.6743 23.79 37.3815 25.4972 39.4963 25.4972C41.6112 25.4972 43.3184 23.79 43.3184 21.6751ZM50.9632 50.9777H33.1269V56.0738H50.9632C53.7661 56.0738 56.0593 53.7805 56.0593 50.9777V33.1413H50.9632V50.9777ZM5.0977 33.1413H10.1938V50.9777H28.0301V56.0738H10.1938C7.39094 56.0738 5.0977 53.7805 5.0977 50.9777V33.1413Z" fill="#205EFB"/>
</svg>
