<svg width="20" height="20" viewBox="0 0 20 20" fill="none" xmlns="http://www.w3.org/2000/svg">
<path fill-rule="evenodd" clip-rule="evenodd" d="M1.66669 10.0001C1.66669 5.40008 5.40002 1.66675 10 1.66675C14.6 1.66675 18.3334 5.40008 18.3334 10.0001C18.3334 14.6001 14.6 18.3334 10 18.3334C5.40002 18.3334 1.66669 14.6001 1.66669 10.0001ZM10.8334 13.3334V15.0001H9.16669V13.3334H10.8334ZM10 16.6667C6.32502 16.6667 3.33335 13.6751 3.33335 10.0001C3.33335 6.32508 6.32502 3.33341 10 3.33341C13.675 3.33341 16.6667 6.32508 16.6667 10.0001C16.6667 13.6751 13.675 16.6667 10 16.6667ZM6.66669 8.33341C6.66669 6.49175 8.15835 5.00008 10 5.00008C11.8417 5.00008 13.3334 6.49175 13.3334 8.33341C13.3334 9.40251 12.675 9.97785 12.034 10.538C11.4259 11.0695 10.8334 11.5873 10.8334 12.5001H9.16669C9.16669 10.9824 9.95179 10.3806 10.6421 9.85148C11.1835 9.43642 11.6667 9.06609 11.6667 8.33341C11.6667 7.41675 10.9167 6.66675 10 6.66675C9.08335 6.66675 8.33335 7.41675 8.33335 8.33341H6.66669Z" fill="black"/>
</svg>
