<svg width="15" height="16" viewBox="0 0 15 16" fill="none" xmlns="http://www.w3.org/2000/svg">
<path fill-rule="evenodd" clip-rule="evenodd" d="M9.456 1.6H12.8C13.68 1.6 14.4 2.32 14.4 3.2V14.4C14.4 15.28 13.68 16 12.8 16H1.6C1.488 16 1.384 15.992 1.28 15.976C0.968 15.912 0.688 15.752 0.472 15.536C0.328 15.384 0.208 15.216 0.128 15.024C0.048 14.832 0 14.616 0 14.4V3.2C0 2.976 0.048 2.768 0.128 2.584C0.208 2.392 0.328 2.216 0.472 2.072C0.688 1.856 0.968 1.696 1.28 1.632C1.384 1.608 1.488 1.6 1.6 1.6H4.944C5.28 0.672 6.16 0 7.2 0C8.24 0 9.12 0.672 9.456 1.6ZM3.20001 4.80003H11.2V6.40003H3.20001V4.80003ZM11.2 8H3.20001V9.6H11.2V8ZM8.80001 11.2H3.20001V12.8H8.80001V11.2ZM7.19998 1.39993C7.52798 1.39993 7.79998 1.67193 7.79998 1.99993C7.79998 2.32793 7.52798 2.59993 7.19998 2.59993C6.87198 2.59993 6.59998 2.32793 6.59998 1.99993C6.59998 1.67193 6.87198 1.39993 7.19998 1.39993ZM1.59998 14.4H12.8V3.19997H1.59998V14.4Z" fill="black" fill-opacity="0.54"/>
</svg>
