<svg width="24" height="28" viewBox="0 0 24 28" fill="none" xmlns="http://www.w3.org/2000/svg">
<path fill-rule="evenodd" clip-rule="evenodd" d="M18.6667 6.66667H21.3333C22.8 6.66667 24 7.86667 24 9.33333V25.3333C24 26.8 22.8 28 21.3333 28H2.66667C1.2 28 0 26.8 0 25.3333V9.33333C0 7.86667 1.2 6.66667 2.66667 6.66667H5.33333C5.33333 2.98667 8.32 0 12 0C15.68 0 18.6667 2.98667 18.6667 6.66667ZM16 6.66671C16 4.45338 14.2133 2.66671 12 2.66671C9.78667 2.66671 8 4.45338 8 6.66671H16ZM21.3332 25.3333H2.66655V9.33329H21.3332V25.3333ZM8.00012 10.6667C8.00012 12.88 9.78678 14.6667 12.0001 14.6667C14.2135 14.6667 16.0001 12.88 16.0001 10.6667H18.6668C18.6668 14.3467 15.6801 17.3334 12.0001 17.3334C8.32012 17.3334 5.33345 14.3467 5.33345 10.6667H8.00012Z"/>
</svg>
