<?xml version="1.0" encoding="utf-8"?>
<!-- Generator: Adobe Illustrator 23.1.1, SVG Export Plug-In . SVG Version: 6.00 Build 0)  -->
<svg version="1.1" id="レイヤー_1" xmlns="http://www.w3.org/2000/svg" xmlns:xlink="http://www.w3.org/1999/xlink" x="0px"
	 y="0px" viewBox="0 0 273 273" style="enable-background:new 0 0 273 273;" xml:space="preserve">
<style type="text/css">
	.st0{display:none;fill:none;stroke:#1A213E;stroke-width:12.5578;}
	.st1{fill:#1A213E;}
	.st2{fill:none;stroke:#1A213E;stroke-width:10.8235;}
</style>
<g>
	<path class="st0" d="M164.9,67.5c-19.1,41.9-10.1,94.8-8.6,101c1.5,6.2,6.5,19.7,18.7,24c12.3,4.3,20.6-0.9,22.6-8.4
		c2.1-7.5-0.5-18-15.8-21.9c-15.3-3.8-38.5-0.3-95,42.7"/>
	<g>
		<path class="st1" d="M84.9,198.7c7.4-6.2,32.2-23.2,43.1-29c10-5.7,32-16.7,47.9-14.6c3.9-0.3,15.3,2,21.8,8.4
			c9.8,9.8,8.9,25.9-0.8,33c-9.1,6.3-23.6,4.9-32-2.2c-13.8-10.5-17.3-27.5-18.4-59c0.1-20.7,2.9-49.7,11.5-67.5
			c0.5-1.5,1-2.3,3.1-2.1c0.2,0.1,4.6,2.1,7.5,3.4c1.7,0.8,1.9,1.5,1,3.5c-6.7,18.7-10.5,38.4-10.3,54.4c0,20.4,1.1,24.4,1.4,29.1
			c0.5,7.5,3.7,22,11.9,28.1c5,3.9,13.7,5.1,17.2,1.6c4.1-4.7,2.1-11.3-1.7-14c-3.2-2.5-7-3.2-10.9-4.1c-12-1.7-25.8,3.2-44.8,14
			c-19.5,11.1-37.1,24.9-39.6,26.8c-1.2,1-2.2,1.1-3.3-0.2c-1.8-2.4-4.9-6.5-4.9-6.5C83.3,200.5,83.9,199.4,84.9,198.7z"/>
	</g>
	<path class="st2" d="M119.7,23L119.7,23c62.9-8.8,121,35,129.9,97.9l0,0c8.8,62.9-35,121-97.9,129.9l0,0
		c-62.9,8.8-121-35-129.9-97.9l0,0C13,90,56.8,31.8,119.7,23z"/>
	<path class="st1" d="M103.6,160.6c-15.1,1.3-27.2-9.5-30.8-27.6c-2.2-11.7-0.2-23.4,5.8-32.9c6.1-9.8,16.1-16.6,27.9-19.2
		c1.9-0.4,3.9-0.6,5.8-0.8c5.2-0.5,10.5-0.2,15.5,1l1.2,0.3l-0.3,1.2c-0.6,2.4-1.2,4.9-1.8,7.4c-0.3,1.5-1.3,5.6-1.3,5.6l-1.1-0.2
		c-5-0.8-9.3-1.1-13.4-0.7c-1.4,0.1-2.7,0.3-4,0.5c-16.1,3.1-23,19.6-20.2,33.9c2.1,11.1,9.8,18.1,19.1,17.3
		c0.8-0.1,1.7-0.2,2.5-0.4c5.3-1,11-3.6,16.7-7.5l1.2-0.9l0.5,1.5c1.2,3.4,2.4,6.7,3.7,9.8l0.4,0.8l-0.7,0.5
		c-6.2,4.6-12.8,7.6-21.4,9.7C106.9,160.2,105.2,160.5,103.6,160.6z"/>
</g>
<g>
	<path class="st0" d="M502.4,67.5c-19.1,41.9-10.1,94.8-8.6,101c1.5,6.2,6.5,19.7,18.7,24c12.3,4.3,20.6-0.9,22.6-8.4
		c2.1-7.5-0.5-18-15.8-21.9c-15.3-3.8-38.5-0.3-95,42.7"/>
	<g>
		<path class="st1" d="M422.3,198.7c7.4-6.2,32.2-23.2,43.1-29c10-5.7,32-16.7,47.9-14.6c3.9-0.3,15.3,2,21.8,8.4
			c9.8,9.8,8.9,25.9-0.8,33c-9.1,6.3-23.6,4.9-32-2.2c-13.8-10.5-17.3-27.5-18.4-59c0.1-20.7,1.5-43.7,11.5-67.5
			c0.5-1.5,1-2.3,3.1-2.1c0.2,0.1,4.6,2.1,7.5,3.4c1.7,0.8,1.9,1.5,1,3.5c-6.7,18.7-9,26.3-10.3,54.4c0,20.4,1.1,24.4,1.4,29.1
			c0.5,7.5,3.7,22,11.9,28.1c5,3.9,13.7,5.1,17.2,1.6c4.1-4.7,2.1-11.3-1.7-14c-3.2-2.5-7-3.2-10.9-4.1c-12-1.7-25.8,3.2-44.8,14
			c-19.5,11.1-37.1,24.9-39.6,26.8c-1.2,1-2.2,1.1-3.3-0.2c-1.8-2.4-4.9-6.5-4.9-6.5C420.7,200.5,421.3,199.4,422.3,198.7z"/>
	</g>
	<path class="st2" d="M457.1,23L457.1,23c62.9-8.8,121,35,129.9,97.9l0,0c8.8,62.9-35,121-97.9,129.9l0,0
		c-62.9,8.8-121-35-129.9-97.9l0,0C350.4,90,394.3,31.8,457.1,23z"/>
	<path class="st1" d="M441,160.6c-15.1,1.3-27.2-9.5-30.8-27.6c-2.2-11.7-0.2-23.4,5.8-32.9c6.1-9.8,16.1-16.6,27.9-19.2
		c1.9-0.4,3.9-0.6,5.8-0.8c5.2-0.5,10.5-0.2,15.5,1l1.2,0.3l-0.3,1.2c-0.6,2.4-1.2,4.9-1.8,7.4c-0.3,1.5-1.3,5.6-1.3,5.6l-1.1-0.2
		c-5-0.8-9.3-1.1-13.4-0.7c-1.4,0.1-2.7,0.3-4,0.5c-16.1,3.1-23,19.6-20.2,33.9c2.1,11.1,9.8,18.1,19.1,17.3
		c0.8-0.1,1.7-0.2,2.5-0.4c5.3-1,11-3.6,16.7-7.5l1.2-0.9l0.5,1.5c1.2,3.4,2.4,6.7,3.7,9.8l0.4,0.8l-0.7,0.5
		c-6.2,4.6-12.8,7.6-21.4,9.7C444.4,160.2,442.7,160.5,441,160.6z"/>
</g>
</svg>
