<svg xmlns="http://www.w3.org/2000/svg" viewBox="0 0 369.3 190.89"><defs><style>.cls-1{fill:#101730;}</style></defs><title>アセット 1</title><g id="レイヤー_2" data-name="レイヤー 2"><g id="レイヤー_1-2" data-name="レイヤー 1"><path class="cls-1" d="M10.18,177.09c7.5-2.9,62.5-22.7,164.3-36.5,97.9-13.3,156.8-16.4,170.7-14.8,3.9.5,14.8,2.7,21.9,15.1,5.4,9.6.6,28-10.4,33-10.1,5.4-24.9.7-31.6-7.9-15.9-16.7.5-79,5.7-100,8.5-30.6,22.1-59.2,24.7-64.4.8-1.4,2.2-2,4.2-1.3l6.6,3.2c2.4,1.2,2.8,2.3,1.6,5-2.5,5.3-14.6,31.6-21.7,55.4-11.6,38.6-12.4,61.1-12.4,61.1s-4.1,22.3,1.6,31.2c2.9,4.1,10.8,7.5,15,4.8,5.7-4.1,5.2-12.1,3.8-14-2.7-5-6.1-5.5-9.6-6.9-7-2.3-34.8-2.8-166.5,14.4-101.2,13.3-155.1,33.2-162.5,36.1-2,.7-3.1.2-4.1-1.7-1.2-2.8-3.2-7.6-3.3-7.7C7.08,178.49,9.48,177.39,10.18,177.09Z"/><path class="cls-1" d="M30.38,138.59c-16.2,0-28-12.6-30.1-32.1a48.58,48.58,0,0,1,9.2-34.4c7.4-9.8,18.6-16.1,31.4-17.8,2.1-.2,4.2-.3,6.2-.3a53,53,0,0,1,16.4,2.5l1.2.4-.4,1.2c-.9,2.5-1.7,5.1-2.6,7.7-.5,1.6-1.9,5.8-1.9,5.8l-1.1-.3a58.37,58.37,0,0,0-14.2-2c-1.5,0-2.9.1-4.3.2-17.4,1.8-26.2,18.7-24.6,34.1,1.2,12,8.7,20.1,18.7,20.1a24.52,24.52,0,0,0,2.7-.2,48.89,48.89,0,0,0,18.4-6.4l1.4-.8.4,1.6c1,3.7,1.9,7.3,3,10.7l.3.9-.8.5a60.2,60.2,0,0,1-23.6,8.3C34,138.49,32.18,138.59,30.38,138.59Z"/><path class="cls-1" d="M95.48,128.19a22.79,22.79,0,0,1-18.4-8.5c-4.1-5.2-6.4-12.6-6.4-20.8,0-24.3,19.2-47.9,41.1-50.6,1-.1,2-.2,3-.2a18.38,18.38,0,0,1,16.1,8.4l1.1,1.6.4-1.9a51.58,51.58,0,0,0,.9-5.2c.2-1,.3-2,.5-3l.1-.3h.3c3.9,0,8.5-.2,13.5-.6h.5l-.1.5c-4.6,29.4-8.6,53.4-12.7,75.6l-.1.3H135c-2.4.2-4.8.4-7.1.7-1.6.2-3.2.4-4.7.5h-.5l.1-.5a60.23,60.23,0,0,0,.3-7.3v-2.1l-1.5,1.5c-6.7,7-14.9,11.1-23.6,11.7A11,11,0,0,1,95.48,128.19Zm17.9-65.7a22.86,22.86,0,0,0-2.5.2C97.08,64.39,86,79.49,86,96.39c0,11.6,5.8,19,14.8,19a12.75,12.75,0,0,0,1.9-.1C118.88,114,129,97,129,82,128.88,70.39,122.68,62.49,113.38,62.49Z"/><path class="cls-1" d="M154,115.49c4.6-23.5,8.9-48.5,12.7-70.6l.2-.9.9-.2c1.5-.3,2.9-.7,4.4-1l.4,1.3-.3-1.3c2-.5,4-1,6.1-1.4l1.7-.4-.1,1.8c0,.8-.1,1.5-.1,2.3-.1,1.6-.2,3.3-.2,4.9v2l1.2-1.6c6.6-8.4,14.8-13.2,25.2-14.4,1-.1,2.1-.2,3.1-.2,5.4,0,9.5,1.7,12.2,5,3.6,4.3,4.7,11.4,3.1,20.5s-3.3,18.8-4.9,28.1c-1.1,6.7-2.3,13.7-3.5,20.6l-.2,1-1,.1c-5.1.6-8.8,1-12.3,1.2l-1.7.1.3-1.7c1.5-9.3,3.1-18.7,4.6-27.8,1-5.8,1.9-11.5,2.9-17.3,1.1-6.3.5-10.8-1.7-13.4a7.61,7.61,0,0,0-6-2.5,10.28,10.28,0,0,0-1.7.1c-12.1,1.7-21.3,13.1-24.6,30.5l-.8,4.8c-1.6,9.8-3.3,19.8-5.2,29.6l-.2,1-1,.1c-5.1.6-8.7,1-12.2,1.2l-1.8.1Z"/><path class="cls-1" d="M261.28,107.89a22.8,22.8,0,0,1-18.8-9.1c-4.2-5.5-6.5-13.1-6.5-21.6,0-24.6,19.3-47.2,41.2-48.5a16.2,16.2,0,0,1,2.2-.1,19.89,19.89,0,0,1,17.2,8.9l.9,1.3.4-1.5a37.35,37.35,0,0,0,.9-4.6c.1-.9.3-1.6.4-2.4l.1-.6h.6c2.2.1,4.4.3,6.7.4s4.4.3,6.5.4h.8l-.1.8c-4.5,23.2-8.5,47.1-12.6,71.6l-.1.5h-.5c-1.7.1-3.3.1-4.9.2l-6.9.3h-.7v-.7a59.53,59.53,0,0,1,.4-7.3l.3-2.5-1.6,1.9a34.14,34.14,0,0,1-23.7,12.1,3.72,3.72,0,0,1-2.2.5Zm15.5-66.3h-.6c-14,1-24.9,15.2-24.9,32.3,0,11.8,6,19.7,14.9,19.7a8.6,8.6,0,0,0,1.6-.1c15.7-1.1,26.2-17.6,26.2-32.3C293.88,49.29,287.18,41.59,276.78,41.59Z"/></g></g></svg>