<svg width="16" height="16" viewBox="0 0 16 16" fill="none" xmlns="http://www.w3.org/2000/svg">
<path d="M5.41687 6.78906C5.76187 6.78906 6.04187 6.50906 6.04187 6.16406V3.72656C6.04187 2.63688 6.92844 1.75 8.01812 1.75C9.10781 1.75 9.99469 2.63688 9.99469 3.72656V6.16406C9.99469 6.50906 10.2744 6.78906 10.6197 6.78906C10.9647 6.78906 11.2447 6.50906 11.2447 6.16406V3.72656C11.245 1.9475 9.7975 0.5 8.01812 0.5C6.23937 0.5 4.79187 1.9475 4.79187 3.72656V6.16406C4.79187 6.50906 5.07187 6.78906 5.41687 6.78906Z" fill="black"/>
<path d="M15.1875 5.38452H11.87V6.1639C11.87 6.85327 11.3094 7.4139 10.62 7.4139C9.93062 7.4139 9.37 6.85327 9.37 6.1639V5.38452H6.66719V6.1639C6.66719 6.85327 6.10656 7.4139 5.41719 7.4139C4.72781 7.4139 4.16719 6.85327 4.16719 6.1639V5.38452H0.8125C0.64 5.38452 0.533438 5.52046 0.574375 5.68796L2.76125 14.5933C2.89313 15.0939 3.42 15.4998 3.9375 15.4998H12.0625C12.5806 15.4998 13.1069 15.0939 13.2394 14.5933L15.4256 5.68796C15.4666 5.52015 15.3603 5.38452 15.1875 5.38452Z" fill="black"/>
</svg>
