<svg width="18" height="14" viewBox="0 0 18 14" fill="none" xmlns="http://www.w3.org/2000/svg">
<path d="M11.5 8.66658V6.16658H14V4.49992L17.3333 7.41658L14 10.3333V8.66658H11.5ZM10.6667 3.41658V4.49992H0.666667V3.41658L5.66667 0.333252L10.6667 3.41658ZM4.83333 5.33325H6.5V9.49992H4.83333V5.33325ZM1.5 5.33325H3.16667V9.49992H1.5V5.33325ZM9.83333 5.33325V7.41658L8.16667 8.91658V5.33325H9.83333ZM6.58333 10.3333L6.08333 10.7499L7.5 11.9999H0.666667V10.3333H6.58333ZM13.1667 9.49992V11.9999H10.6667V13.6666L7.33333 10.7499L10.6667 7.83325V9.49992H13.1667Z" fill="black"/>
</svg>
