<svg width="20" height="14" viewBox="0 0 20 14" fill="none" xmlns="http://www.w3.org/2000/svg">
<path d="M0.625 3.24992H8.75L9.375 4.49992H1.25L0.625 3.24992ZM1.45833 5.74992H9.58333L10.2083 6.99992H2.08333L1.45833 5.74992ZM15 12.4166C15.6917 12.4166 16.25 11.8583 16.25 11.1666C16.25 10.4749 15.6917 9.91658 15 9.91658C14.3083 9.91658 13.75 10.4749 13.75 11.1666C13.75 11.8583 14.3083 12.4166 15 12.4166ZM16.25 4.91658H14.1667V6.99992H17.8833L16.25 4.91658ZM6.66667 12.4166C7.35833 12.4166 7.91667 11.8583 7.91667 11.1666C7.91667 10.4749 7.35833 9.91658 6.66667 9.91658C5.975 9.91658 5.41667 10.4749 5.41667 11.1666C5.41667 11.8583 5.975 12.4166 6.66667 12.4166ZM16.6667 3.66658L19.1667 6.99992V11.1666H17.5C17.5 12.5499 16.3833 13.6666 15 13.6666C13.6167 13.6666 12.5 12.5499 12.5 11.1666H9.16667C9.16667 12.5499 8.04167 13.6666 6.66667 13.6666C5.28333 13.6666 4.16667 12.5499 4.16667 11.1666H2.5V8.24992H4.16667V9.49992H4.8C5.25833 8.99158 5.925 8.66658 6.66667 8.66658C7.40833 8.66658 8.075 8.99158 8.53333 9.49992H12.5V1.99992H2.5C2.5 1.07492 3.24167 0.333252 4.16667 0.333252H14.1667V3.66658H16.6667Z" fill="black"/>
</svg>
