<svg width="18" height="18" viewBox="0 0 18 18" fill="none" xmlns="http://www.w3.org/2000/svg">
<path d="M9 6.5C8.75277 6.5 8.5111 6.42669 8.30554 6.28934C8.09998 6.15199 7.93976 5.95676 7.84515 5.72835C7.75054 5.49995 7.72579 5.24861 7.77402 5.00614C7.82225 4.76366 7.9413 4.54093 8.11612 4.36612C8.29093 4.1913 8.51366 4.07225 8.75614 4.02402C8.99861 3.97579 9.24995 4.00054 9.47836 4.09515C9.70676 4.18976 9.90199 4.34998 10.0393 4.55554C10.1767 4.7611 10.25 5.00277 10.25 5.25C10.25 5.58152 10.1183 5.89946 9.88388 6.13388C9.64946 6.3683 9.33152 6.5 9 6.5Z" fill="black"/>
<path d="M9 17.125C7.39303 17.125 5.82214 16.6485 4.48599 15.7557C3.14984 14.8629 2.10844 13.594 1.49348 12.1093C0.878517 10.6247 0.717615 8.99099 1.03112 7.4149C1.34462 5.8388 2.11846 4.39106 3.25476 3.25476C4.39106 2.11846 5.8388 1.34463 7.41489 1.03112C8.99099 0.717618 10.6247 0.87852 12.1093 1.49348C13.594 2.10844 14.8629 3.14985 15.7557 4.486C16.6485 5.82214 17.125 7.39303 17.125 9C17.125 11.1549 16.269 13.2215 14.7452 14.7452C13.2215 16.269 11.1549 17.125 9 17.125ZM9 2.125C7.64025 2.125 6.31104 2.52822 5.18045 3.28365C4.04987 4.03908 3.16868 5.11281 2.64833 6.36906C2.12798 7.6253 1.99183 9.00763 2.2571 10.3412C2.52237 11.6749 3.17715 12.8999 4.13864 13.8614C5.10013 14.8228 6.32513 15.4776 7.65875 15.7429C8.99237 16.0082 10.3747 15.872 11.6309 15.3517C12.8872 14.8313 13.9609 13.9501 14.7164 12.8195C15.4718 11.689 15.875 10.3597 15.875 9C15.875 7.17664 15.1507 5.42796 13.8614 4.13864C12.572 2.84933 10.8234 2.125 9 2.125Z" fill="black"/>
<path d="M9 14C8.66848 14 8.35054 13.8683 8.11612 13.6339C7.8817 13.3995 7.75 13.0815 7.75 12.75V9C7.75 8.66848 7.8817 8.35054 8.11612 8.11612C8.35054 7.8817 8.66848 7.75 9 7.75C9.33152 7.75 9.64946 7.8817 9.88388 8.11612C10.1183 8.35054 10.25 8.66848 10.25 9V12.75C10.25 13.0815 10.1183 13.3995 9.88388 13.6339C9.64946 13.8683 9.33152 14 9 14Z" fill="black"/>
</svg>
