<svg width="12" height="15" viewBox="0 0 12 15" fill="none" xmlns="http://www.w3.org/2000/svg">
<path fill-rule="evenodd" clip-rule="evenodd" d="M9.66666 1.06204V1.74938H11.6667V7.24812H6.33333V13.4342C6.33333 13.8122 6.03333 14.1215 5.66666 14.1215H4.33333C3.96666 14.1215 3.66666 13.8122 3.66666 13.4342V5.87344H10.3333V3.12406H9.66666V3.81141C9.66666 4.18945 9.36666 4.49875 9 4.49875H0.999995C0.633328 4.49875 0.333328 4.18945 0.333328 3.81141V1.06204C0.333328 0.683999 0.633328 0.374695 0.999995 0.374695H9C9.36666 0.374695 9.66666 0.683999 9.66666 1.06204ZM1.66666 3.12406H8.33333V1.74938H1.66666V3.12406Z" fill="black"/>
</svg>
