<svg width="14" height="18" viewBox="0 0 14 18" fill="none" xmlns="http://www.w3.org/2000/svg">
<path fill-rule="evenodd" clip-rule="evenodd" d="M7.29569 0.666748C10.4114 0.666748 12.9435 2.90841 12.9435 5.66675C12.9435 9.41675 7.29569 14.8334 7.29569 14.8334C7.29569 14.8334 1.64785 9.41675 1.64785 5.66675C1.64785 2.90841 4.17997 0.666748 7.29569 0.666748ZM13.8848 17.3334V15.6667H0.706543V17.3334H13.8848ZM3.53046 5.66675C3.53046 3.82508 5.2154 2.33341 7.29569 2.33341C9.37598 2.33341 11.0609 3.82508 11.0609 5.66675C11.0609 7.44175 9.103 10.2167 7.29569 12.2584C5.48838 10.2251 3.53046 7.44175 3.53046 5.66675ZM5.41308 5.66675C5.41308 4.75008 6.26025 4.00008 7.29569 4.00008C8.33113 4.00008 9.1783 4.75008 9.1783 5.66675C9.1783 6.58341 8.34054 7.33341 7.29569 7.33341C6.26025 7.33341 5.41308 6.58341 5.41308 5.66675Z"/>
</svg>
