<svg width="13" height="16" viewBox="0 0 13 16" fill="none" xmlns="http://www.w3.org/2000/svg">
<path fill-rule="evenodd" clip-rule="evenodd" d="M10.1414 1.99996H7.97439C7.75665 1.22663 7.18639 0.666626 6.51245 0.666626C5.8385 0.666626 5.26824 1.22663 5.05051 1.99996H2.88352C2.31326 1.99996 1.84668 2.59996 1.84668 3.33329V14C1.84668 14.7333 2.31326 15.3333 2.88352 15.3333H10.1414C10.7116 15.3333 11.1782 14.7333 11.1782 14V3.33329C11.1782 2.59996 10.7116 1.99996 10.1414 1.99996ZM6.51245 1.99996C6.79758 1.99996 7.03087 2.29996 7.03087 2.66663C7.03087 3.03329 6.79758 3.33329 6.51245 3.33329C6.22732 3.33329 5.99403 3.03329 5.99403 2.66663C5.99403 2.29996 6.22732 1.99996 6.51245 1.99996ZM2.88352 14H10.1414V3.3333H9.10454V5.3333H3.92035V3.3333H2.88352V14Z" fill="black"/>
</svg>
