<svg width="18" height="19" viewBox="0 0 18 19" fill="none" xmlns="http://www.w3.org/2000/svg">
<path fill-rule="evenodd" clip-rule="evenodd" d="M13.6312 9.83199C13.3762 10.297 12.8813 10.6045 12.3188 10.6045H6.73125L5.90625 12.1045H14.9062V13.6045H5.90625C4.76625 13.6045 4.04625 12.382 4.59375 11.377L5.60625 9.54699L2.90625 3.85449H1.40625V2.35449H3.85875L4.56375 3.85449H15.6637C16.2338 3.85449 16.5937 4.46949 16.3162 4.96449L13.6312 9.83199ZM14.3887 5.35458H5.27618L7.05368 9.10458H12.3187L14.3887 5.35458ZM5.90626 14.3546C5.08126 14.3546 4.41376 15.0296 4.41376 15.8546C4.41376 16.6796 5.08126 17.3546 5.90626 17.3546C6.73126 17.3546 7.40626 16.6796 7.40626 15.8546C7.40626 15.0296 6.73126 14.3546 5.90626 14.3546ZM11.9138 15.8546C11.9138 15.0296 12.5813 14.3546 13.4063 14.3546C14.2313 14.3546 14.9063 15.0296 14.9063 15.8546C14.9063 16.6796 14.2313 17.3546 13.4063 17.3546C12.5813 17.3546 11.9138 16.6796 11.9138 15.8546Z" fill="white"/>
</svg>
