<svg width="24" height="25" viewBox="0 0 24 25" fill="none" xmlns="http://www.w3.org/2000/svg">
<path fill-rule="evenodd" clip-rule="evenodd" d="M17.21 10.3648H22C22.55 10.3648 23 10.8148 23 11.3648L22.97 11.6348L20.43 20.9048C20.19 21.7448 19.42 22.3648 18.5 22.3648H5.5C4.58 22.3648 3.81 21.7448 3.58 20.9048L1.04 11.6348C1.01 11.5448 1 11.4548 1 11.3648C1 10.8148 1.45 10.3648 2 10.3648H6.79L11.17 3.81477C11.36 3.52477 11.68 3.38477 12 3.38477C12.32 3.38477 12.64 3.52477 12.83 3.80477L17.21 10.3648ZM14.8 10.3649L12 6.16492L9.19995 10.3649H14.8ZM18.5001 20.3649L5.51009 20.3749L3.31009 12.3649H20.7001L18.5001 20.3649ZM10 16.3651C10 15.2651 10.9 14.3651 12 14.3651C13.1 14.3651 14 15.2651 14 16.3651C14 17.4651 13.1 18.3651 12 18.3651C10.9 18.3651 10 17.4651 10 16.3651Z" fill="#205EFB"/>
</svg>
