<svg width="48" height="48" viewBox="0 0 48 48" fill="none" xmlns="http://www.w3.org/2000/svg">
<path fill-rule="evenodd" clip-rule="evenodd" d="M31.9064 30.014H34.013L47.3197 43.3473L43.3464 47.3207L30.013 34.014V31.9073L29.293 31.1607C26.253 33.774 22.3064 35.3473 18.013 35.3473C8.43969 35.3473 0.679688 27.5873 0.679688 18.014C0.679688 8.44066 8.43969 0.680664 18.013 0.680664C27.5864 0.680664 35.3464 8.44066 35.3464 18.014C35.3464 22.3073 33.773 26.254 31.1597 29.294L31.9064 30.014ZM6.01272 18.0146C6.01272 24.6546 11.3727 30.0146 18.0127 30.0146C24.6527 30.0146 30.0127 24.6546 30.0127 18.0146C30.0127 11.3746 24.6527 6.0146 18.0127 6.0146C11.3727 6.0146 6.01272 11.3746 6.01272 18.0146Z"/>
</svg>
