<svg width="156" height="14" viewBox="0 0 156 14" fill="none" xmlns="http://www.w3.org/2000/svg">
<g clip-path="url(#clip0)">
<path d="M-4.63568e-05 13.5546L-4.57764e-05 0.276123L6.80389 0.276123C9.78395 0.276123 11.6567 1.12309 11.6567 3.72672C11.6567 5.18224 10.634 6.19232 9.29459 6.63463L9.29459 6.67227C10.9979 7.00792 12.2527 8.15602 12.2527 10.1166C12.2527 12.7453 10.1008 13.5672 6.84467 13.5672L0.00309409 13.5672L-4.63568e-05 13.5546ZM6.90427 5.62141C8.11198 5.62141 8.78641 5.12578 8.78641 4.05295C8.78641 2.98013 8.11826 2.4845 6.90427 2.4845L2.88591 2.4845L2.88591 5.62141L6.90427 5.62141ZM6.90427 11.3619C8.25942 11.3619 9.18794 11.1204 9.18794 9.59586C9.18794 8.07133 8.24687 7.82979 6.90427 7.82979L2.88591 7.82979L2.88591 11.3494L6.90427 11.3619Z" fill="#231F20"/>
<path d="M28.8251 0.276123L28.8251 8.74576C28.8251 12.2779 26.2716 13.9875 23.0281 13.9875C19.7845 13.9875 17.2311 12.2779 17.2311 8.74576L17.2311 0.276123L20.0951 0.276123L20.0951 7.39376C20.0951 9.63664 20.208 11.6788 23.0218 11.6788C25.8356 11.6788 25.9485 9.63664 25.9485 7.39376L25.9485 0.276123L28.8188 0.276123" fill="#231F20"/>
<path d="M34.7099 13.5546L34.7099 0.276123L37.5739 0.276123L37.5739 10.9981L45.2091 10.9981L45.2091 13.5546L34.7099 13.5546Z" fill="#231F20"/>
<path d="M61.2826 0.276123L57.9292 0.276123L52.5589 6.41191L52.5589 0.276123L49.6855 0.276123L49.6855 13.5546L52.5589 13.5546L52.5589 7.41885L57.9292 13.5546L61.2826 13.5546L55.3821 6.91695L61.2826 0.276123Z" fill="#231F20"/>
<path d="M70.5992 13.5546L70.5992 0.276123L71.7379 0.276123L71.7379 6.36172L81.0545 6.36172L81.0545 0.276123L82.1932 0.276123L82.1932 13.5546L81.0545 13.5546L81.0545 7.46591L71.7379 7.46591L71.7379 13.5546L70.5992 13.5546Z" fill="#231F20"/>
<path d="M94.1668 -2.86166e-07C89.9477 -4.7059e-07 87.6044 2.77616 87.6044 6.91687C87.6044 11.0576 89.9477 13.8181 94.1668 13.8181C98.3859 13.8181 100.714 11.0544 100.714 6.91687C100.714 2.7793 98.3859 -1.01742e-07 94.1668 -2.86166e-07ZM94.1668 12.9052C90.3492 12.9052 88.8341 9.90948 88.8341 6.91687C88.8341 3.92427 90.3617 0.941071 94.1668 0.941071C97.9718 0.941071 99.4995 3.93368 99.4995 6.92942C99.4995 9.92516 97.9844 12.9052 94.1668 12.9052Z" fill="#231F20"/>
<path d="M106.137 13.5546L106.137 0.276122L108.029 0.276123L112.693 6.94518L117.468 0.276123L119.265 0.276123L119.265 13.5546L118.083 13.5546L118.083 1.28621L118.048 1.28621L113.292 8.13407L112.113 8.13407L107.357 1.34267L107.32 1.34267L107.32 13.5546L106.137 13.5546Z" fill="#231F20"/>
<path d="M144.671 13.5546L144.671 0.276123L155.33 0.276123L154.885 1.38031L145.882 1.38031L145.882 6.36172L152.949 6.36172L152.949 7.46591L145.882 7.46591L145.882 12.4504L155.167 12.4504L155.609 13.5546L144.671 13.5546Z" fill="#231F20"/>
<path d="M125.404 13.5546L125.404 0.276122L127.296 0.276123L131.96 6.94518L136.731 0.276123L138.532 0.276123L138.532 13.5546L137.349 13.5546L137.349 1.28621L137.315 1.28621L132.559 8.13407L131.377 8.13407L126.621 1.34267L126.587 1.34267L126.587 13.5546L125.404 13.5546Z" fill="#231F20"/>
</g>
<defs>
<clipPath id="clip0">
<rect x="155.609" width="14" height="155.609" transform="rotate(90 155.609 0)" fill="white"/>
</clipPath>
</defs>
</svg>
