<svg width="40" height="40" viewBox="0 0 40 40" fill="none" xmlns="http://www.w3.org/2000/svg">
<path fill-rule="evenodd" clip-rule="evenodd" d="M21.1808 9.087L9.55711 14.0686L11.6679 15.7572L23.3766 10.4883L23.68 10.3366L21.1808 9.087ZM9.09341 21.5808V14.9782L11.2819 16.729L11.5206 16.92L11.7994 16.7946L20.697 12.7907V16.6079L9.09341 21.5808ZM9.09341 23.0913V26.8065L18.1961 30.5546V26.8917L9.09341 23.0913ZM18.9078 26.0004H18.6569L15.3516 24.6204L17.8196 23.3865L17.3723 22.492L14.133 24.1117L9.87488 22.3339L20.697 17.6958V20.5207C20.697 20.7101 20.59 20.8832 20.4206 20.9679L18.5727 21.8919L19.0199 22.7863L20.8678 21.8623C20.9429 21.8248 21.0139 21.7815 21.0804 21.733L24.4746 23.4682L18.9078 26.0004ZM19.1961 26.9679V30.6272L30.8999 25.6113V21.6441L19.2018 26.9653C19.1999 26.9662 19.198 26.967 19.1961 26.9679ZM29.8279 21.0331L21.697 17.6851V20.5207C21.697 20.6506 21.6802 20.778 21.6482 20.9002L25.6372 22.9394L29.8279 21.0331ZM20.7954 8.1642C21.0603 8.05065 21.3619 8.0595 21.6197 8.18842L24.1629 9.46005C24.8853 9.8212 24.8853 10.852 24.1629 11.2131L21.697 12.4461V16.6036L31.293 20.5549C31.6602 20.7061 31.8999 21.064 31.8999 21.4611V25.6245C31.8999 26.0165 31.6662 26.3708 31.3059 26.5252L19.1786 31.7226C18.9366 31.8264 18.6629 31.8283 18.4194 31.7281L8.70028 27.7261C8.33307 27.5749 8.09341 27.217 8.09341 26.8199V14.2541C8.09341 13.8621 8.32704 13.5078 8.68737 13.3533L20.7954 8.1642Z" fill="black"/>
</svg>
