<svg width="80" height="28" viewBox="0 0 80 28" fill="none" xmlns="http://www.w3.org/2000/svg">
<path d="M13.0625 12.4375V17.1094C12.2604 16.1302 11.5417 15.4583 10.9062 15.0938C10.2812 14.7188 9.54688 14.5312 8.70312 14.5312C7.38021 14.5312 6.28125 14.9948 5.40625 15.9219C4.53125 16.849 4.09375 18.0104 4.09375 19.4062C4.09375 20.8333 4.51562 22.0052 5.35938 22.9219C6.21354 23.8385 7.30208 24.2969 8.625 24.2969C9.46875 24.2969 10.2135 24.1146 10.8594 23.75C11.4844 23.3958 12.2188 22.7083 13.0625 21.6875V26.3281C11.6354 27.0677 10.2083 27.4375 8.78125 27.4375C6.42708 27.4375 4.45833 26.6771 2.875 25.1562C1.29167 23.625 0.5 21.724 0.5 19.4531C0.5 17.1823 1.30208 15.2656 2.90625 13.7031C4.51042 12.1406 6.47917 11.3594 8.8125 11.3594C10.3125 11.3594 11.7292 11.7188 13.0625 12.4375ZM28.6875 11.7812H32.2188V27H28.6875V25.4062C27.2396 26.7604 25.6823 27.4375 24.0156 27.4375C21.9115 27.4375 20.1719 26.6771 18.7969 25.1562C17.4323 23.6042 16.75 21.6667 16.75 19.3438C16.75 17.0625 17.4323 15.1615 18.7969 13.6406C20.1615 12.1198 21.8698 11.3594 23.9219 11.3594C25.6927 11.3594 27.2812 12.0885 28.6875 13.5469V11.7812ZM20.3438 19.3438C20.3438 20.8021 20.7344 21.9896 21.5156 22.9062C22.3177 23.8333 23.3281 24.2969 24.5469 24.2969C25.849 24.2969 26.901 23.849 27.7031 22.9531C28.5052 22.026 28.9062 20.849 28.9062 19.4219C28.9062 17.9948 28.5052 16.8177 27.7031 15.8906C26.901 14.9844 25.8594 14.5312 24.5781 14.5312C23.3698 14.5312 22.3594 14.9896 21.5469 15.9062C20.7448 16.8333 20.3438 17.9792 20.3438 19.3438ZM37.6562 11.7812H41.1875V13.1875C42.4167 11.9688 43.8021 11.3594 45.3438 11.3594C47.1146 11.3594 48.4948 11.9167 49.4844 13.0312C50.3385 13.9792 50.7656 15.526 50.7656 17.6719V27H47.2344V18.5C47.2344 17 47.026 15.9635 46.6094 15.3906C46.2031 14.8073 45.4635 14.5156 44.3906 14.5156C43.224 14.5156 42.3958 14.901 41.9062 15.6719C41.4271 16.4323 41.1875 17.7604 41.1875 19.6562V27H37.6562V11.7812ZM67.4375 11.7812H70.9688V27H67.4375V25.4062C65.9896 26.7604 64.4323 27.4375 62.7656 27.4375C60.6615 27.4375 58.9219 26.6771 57.5469 25.1562C56.1823 23.6042 55.5 21.6667 55.5 19.3438C55.5 17.0625 56.1823 15.1615 57.5469 13.6406C58.9115 12.1198 60.6198 11.3594 62.6719 11.3594C64.4427 11.3594 66.0312 12.0885 67.4375 13.5469V11.7812ZM59.0938 19.3438C59.0938 20.8021 59.4844 21.9896 60.2656 22.9062C61.0677 23.8333 62.0781 24.2969 63.2969 24.2969C64.599 24.2969 65.651 23.849 66.4531 22.9531C67.2552 22.026 67.6562 20.849 67.6562 19.4219C67.6562 17.9948 67.2552 16.8177 66.4531 15.8906C65.651 14.9844 64.6094 14.5312 63.3281 14.5312C62.1198 14.5312 61.1094 14.9896 60.2969 15.9062C59.4948 16.8333 59.0938 17.9792 59.0938 19.3438ZM79.9219 0.609375V27H76.4062V0.609375H79.9219Z" fill="black" fill-opacity="0.99"/>
</svg>
