<svg width="33" height="32" viewBox="0 0 33 32" fill="none" xmlns="http://www.w3.org/2000/svg">
<path d="M17.4234 14.5333C14.3967 13.7467 13.4234 12.9333 13.4234 11.6667C13.4234 10.2133 14.77 9.2 17.0234 9.2C19.3967 9.2 20.2767 10.3333 20.3567 12H23.3034C23.21 9.70667 21.81 7.6 19.0234 6.92V4H15.0234V6.88C12.4367 7.44 10.3567 9.12 10.3567 11.6933C10.3567 14.7733 12.9034 16.3067 16.6234 17.2C19.9567 18 20.6234 19.1733 20.6234 20.4133C20.6234 21.3333 19.97 22.8 17.0234 22.8C14.2767 22.8 13.1967 21.5733 13.05 20H10.1167C10.2767 22.92 12.4634 24.56 15.0234 25.1067V28H19.0234V25.1333C21.6234 24.64 23.69 23.1333 23.69 20.4C23.69 16.6133 20.45 15.32 17.4234 14.5333Z" fill="#205EFB"/>
</svg>
