<svg width="33" height="32" viewBox="0 0 33 32" fill="none" xmlns="http://www.w3.org/2000/svg">
<path fill-rule="evenodd" clip-rule="evenodd" d="M27.2796 10.6667H23.2796V5.33337H4.61296C3.14629 5.33337 1.94629 6.53337 1.94629 8.00004V22.6667H4.61296C4.61296 24.88 6.39962 26.6667 8.61296 26.6667C10.8263 26.6667 12.613 24.88 12.613 22.6667H20.613C20.613 24.88 22.3996 26.6667 24.613 26.6667C26.8263 26.6667 28.613 24.88 28.613 22.6667H31.2796V16L27.2796 10.6667ZM26.6129 12.6667L29.2262 16H23.2796V12.6667H26.6129ZM7.27958 22.6667C7.27958 23.4 7.87958 24 8.61292 24C9.34625 24 9.94625 23.4 9.94625 22.6667C9.94625 21.9333 9.34625 21.3333 8.61292 21.3333C7.87958 21.3333 7.27958 21.9333 7.27958 22.6667ZM11.5729 20C10.8396 19.1867 9.79958 18.6667 8.61292 18.6667C7.42625 18.6667 6.38625 19.1867 5.65292 20H4.61292V8H20.6129V20H11.5729ZM23.2796 22.6667C23.2796 23.4 23.8796 24 24.6129 24C25.3462 24 25.9462 23.4 25.9462 22.6667C25.9462 21.9333 25.3462 21.3333 24.6129 21.3333C23.8796 21.3333 23.2796 21.9333 23.2796 22.6667Z" fill="#205EFB"/>
</svg>
