<svg width="33" height="32" viewBox="0 0 33 32" fill="none" xmlns="http://www.w3.org/2000/svg">
<path fill-rule="evenodd" clip-rule="evenodd" d="M12.258 2.00671H20.258V4.67338H12.258V2.00671ZM17.5914 19.34H14.9247V11.34H17.5914V19.34ZM25.6314 10.5133L27.5247 8.62C26.9514 7.94 26.3247 7.3 25.6447 6.74L23.7514 8.63333C21.6847 6.98 19.0847 5.99333 16.2581 5.99333C9.63139 5.99333 4.25806 11.3667 4.25806 17.9933C4.25806 24.62 9.61806 29.9933 16.2581 29.9933C22.8981 29.9933 28.2581 24.62 28.2581 17.9933C28.2581 15.18 27.2714 12.58 25.6314 10.5133ZM6.92473 18.0067C6.92473 23.1667 11.0981 27.34 16.2581 27.34C21.4181 27.34 25.5914 23.1667 25.5914 18.0067C25.5914 12.8467 21.4181 8.67337 16.2581 8.67337C11.0981 8.67337 6.92473 12.8467 6.92473 18.0067Z" fill="#205EFB"/>
</svg>
