<svg width="16" height="17" viewBox="0 0 16 17" fill="none" xmlns="http://www.w3.org/2000/svg">
<path fill-rule="evenodd" clip-rule="evenodd" d="M12.6667 3.63216H12V2.29883H10.6667V3.63216H5.33333V2.29883H4V3.63216H3.33333C2.6 3.63216 2 4.23216 2 4.96549V14.2988C2 15.0322 2.6 15.6322 3.33333 15.6322H12.6667C13.4 15.6322 14 15.0322 14 14.2988V4.96549C14 4.23216 13.4 3.63216 12.6667 3.63216ZM12.6666 14.2989H3.33328V7.63222H12.6666V14.2989ZM3.33328 4.96556V6.29889H12.6666V4.96556H3.33328ZM4.66672 8.96555H11.3334V10.2989H4.66672V8.96555ZM9.33339 11.6323H4.66672V12.9656H9.33339V11.6323Z" fill="black"/>
</svg>
